<?xml version="1.0" encoding="UTF-8" standalone="no"?>
<svg
   xmlns:dc="http://purl.org/dc/elements/1.1/"
   xmlns:cc="http://creativecommons.org/ns#"
   xmlns:rdf="http://www.w3.org/1999/02/22-rdf-syntax-ns#"
   xmlns:svg="http://www.w3.org/2000/svg"
   xmlns="http://www.w3.org/2000/svg"
   xmlns:sodipodi="http://sodipodi.sourceforge.net/DTD/sodipodi-0.dtd"
   xmlns:inkscape="http://www.inkscape.org/namespaces/inkscape"
   width="288"
   height="243"
   viewBox="0 0 288 243"
   version="1.1"
   id="svg26"
   sodipodi:docname="sqt-logo.svg"
   inkscape:version="0.92.4 (5da689c313, 2019-01-14)">
  <metadata
     id="metadata32">
    <rdf:RDF>
      <cc:Work
         rdf:about="">
        <dc:format>image/svg+xml</dc:format>
        <dc:type
           rdf:resource="http://purl.org/dc/dcmitype/StillImage" />
      </cc:Work>
    </rdf:RDF>
  </metadata>
  <defs
     id="defs30" />
  <sodipodi:namedview
     pagecolor="#ffffff"
     bordercolor="#666666"
     borderopacity="1"
     objecttolerance="10"
     gridtolerance="10"
     guidetolerance="10"
     inkscape:pageopacity="0"
     inkscape:pageshadow="2"
     inkscape:window-width="1920"
     inkscape:window-height="1017"
     id="namedview28"
     showgrid="false"
     inkscape:zoom="1.3734749"
     inkscape:cx="64.111707"
     inkscape:cy="95.522084"
     inkscape:window-x="-8"
     inkscape:window-y="-8"
     inkscape:window-maximized="1"
     inkscape:current-layer="svg26" />
  <path
     fill="#FFF"
     d="M2 2h284v239H2z"
     id="path2" />
  <path
     d="M74.2 150.7c2.1 1.8 4.4 3.3 7 4.4 2.5 1.1 5.1 1.7 7.5 1.7 2.8 0 4.8-.5 6.2-1.5 1.3-1 2-2.4 2-4.1 0-.9-.2-1.7-.6-2.3-.4-.7-1-1.2-1.7-1.8-.8-.5-1.7-1-2.7-1.4-1.1-.4-2.2-.9-3.5-1.5l-7.7-3.2c-1.5-.6-3-1.4-4.4-2.3-1.4-1-2.7-2.1-3.8-3.4-1.1-1.3-2-2.8-2.7-4.5-.7-1.7-1-3.6-1-5.8 0-2.4.5-4.7 1.5-6.8 1-2.1 2.5-4 4.3-5.6 1.9-1.6 4.1-2.8 6.6-3.7 2.5-.9 5.4-1.3 8.4-1.3 3.4 0 6.8.7 10.1 2s6.3 3.2 8.8 5.8l-6.8 8.4c-1.9-1.5-3.8-2.7-5.8-3.5-1.9-.8-4-1.2-6.4-1.2-2.3 0-4.1.5-5.4 1.4-1.3.9-2 2.2-2 3.9 0 .9.2 1.7.7 2.3.4.6 1.1 1.2 1.9 1.7.8.5 1.8 1 2.8 1.4 1.1.5 2.3.9 3.5 1.5l7.6 3.1c3.6 1.4 6.4 3.4 8.5 5.9s3.1 5.8 3.1 10c0 2.5-.5 4.8-1.5 7s-2.4 4.1-4.3 5.8c-1.9 1.7-4.2 3-7 4s-5.9 1.5-9.4 1.5c-3.8 0-7.7-.7-11.5-2.1-3.8-1.4-7.2-3.5-10.2-6.3l7.9-9.5zm117.4-31.1h-16.1v-11.2H221v11.2h-16v47.5h-13.3v-47.5zm-22.9 5.2c-1.3-3.7-3.1-6.9-5.4-9.5-2.3-2.6-5.1-4.5-8.4-5.9-3.3-1.4-6.9-2-10.8-2s-7.6.7-10.8 2c-3.3 1.4-6.1 3.3-8.4 5.9-2.3 2.6-4.2 5.7-5.4 9.4-1.3 3.8-1.9 8-1.9 12.8 0 4.8.6 9.1 1.9 12.9 1.3 3.8 3.1 7 5.4 9.6 2.3 2.6 5.1 4.7 8.4 6.1.9.4 1.9.7 2.9 1v-13.6c-.6-.6-1.1-1.2-1.6-2-2.3-3.5-3.5-8.1-3.5-14.1 0-5.9 1.2-10.5 3.5-13.8 2.3-3.3 5.5-5 9.5-5s7.2 1.7 9.5 5 3.5 7.9 3.5 13.8-1.2 10.6-3.5 14.1c-.5.7-1 1.4-1.6 2v13.6c1-.3 2-.6 2.9-1 3.3-1.4 6.1-3.4 8.4-6.1 2.3-2.6 4.2-5.8 5.4-9.6 1.3-3.8 1.9-8.1 1.9-12.9 0-4.7-.6-8.9-1.9-12.7z"
     id="path14" />
  <path
     d="M139.5 142.5h9v36h-9z"
     id="path16" />
  <path
     d="M53.3 198.8c-13.8-2-18.8-11.1-14.3-23.6.4-1 .7-1.9 1.6-4-9.8 7.5-17.6 14.9-22 24.9-6.1 13.7.6 24.1 16.2 25.1 21.4 1.3 39.5-6.9 56.5-18 8.5-5.6 15.9-12.3 21.3-21-11.9 7.1-24.2 13.4-38.1 15.8-6.9 1.1-14.3 1.8-21.2.8zm7.6-85.4c-1.5-3.4-2.7-5.6-3.5-7.9-3.1-8.8.9-15.2 10.6-17.1 9-1.8 17.5.5 25.8 3.4 4.5 1.6 8.7 3.8 13.1 5.7.1-.2-28.6-21.7-47.6-23.7-.8-.1-1.7-.1-2.5-.1-15.3.4-20.9 9.7-13.4 22.3 4 6.8 9.8 12 17.5 17.4zm208.5 82.7c-4.5-10-12.2-17.4-22-24.9.8 2.1 1.2 3.1 1.6 4 4.5 12.5-.5 21.6-14.3 23.6-6.9 1-14.3.3-21.2-.9-13.9-2.4-26.2-8.7-38.1-15.8 5.4 8.7 12.8 15.5 21.3 21 17 11.1 35.1 19.3 56.5 18 15.6-.9 22.3-11.3 16.2-25zM220.1 88.4c9.7 1.9 13.7 8.3 10.6 17.1-.8 2.3-2 4.5-3.5 7.9 7.7-5.3 13.5-10.6 17.5-17.4 7.5-12.6 1.9-21.9-13.4-22.2-.8 0-1.7 0-2.5.1-19 1.9-47.7 23.4-47.6 23.7 4.4-1.9 8.6-4.1 13.1-5.7 8.3-3 16.7-5.3 25.8-3.5zm-61.5 98c-3 5.8-6.8 11.5-14.5 11.6h-.4c-7.7-.1-11.5-5.8-14.5-11.6-1.9-3.8-3.2-7.9-5.3-13.1-1.1 12.2-.3 23.1 4 33.5 1.2 2.9 2.9 5.7 4.8 8.2 3.3 4.2 7.2 6.3 11 6.4 3.9-.1 7.7-2.2 11-6.4 2-2.5 3.6-5.3 4.8-8.2 4.4-10.4 5.1-21.3 4-33.5-1.7 5.3-3 9.4-4.9 13.1zm-1.4-163.1c-4-4.3-8.6-6.4-13.2-6.4s-9.2 2.1-13.2 6.4c-4.3 4.6-7.6 10.4-10.1 16.1-6.5 15-7 30.8-5.6 47.2 3.4-7.8 5.7-15.5 9.7-22.2 5.3-9.1 12.2-13.6 19.1-13.7 6.9 0 13.8 4.6 19.1 13.7 4 6.8 6.4 14.4 9.7 22.2 1.4-16.4 1-32.2-5.6-47.2-2.3-5.8-5.6-11.5-9.9-16.1z"
     fill-rule="evenodd"
     clip-rule="evenodd"
     fill="#0F50D6"
     id="path20" />
</svg>
